<svg viewBox="0 0 512 512" xmlns="http://www.w3.org/2000/svg">
  <defs>
    <!-- 渐变定义 -->
    <linearGradient id="primaryGradient" x1="0%" y1="0%" x2="100%" y2="100%">
      <stop offset="0%" style="stop-color:#6366F1;stop-opacity:1" />
      <stop offset="100%" style="stop-color:#8B5CF6;stop-opacity:1" />
    </linearGradient>

    <linearGradient id="accentGradient" x1="0%" y1="0%" x2="100%" y2="100%">
      <stop offset="0%" style="stop-color:#EC4899;stop-opacity:1" />
      <stop offset="100%" style="stop-color:#F59E0B;stop-opacity:1" />
    </linearGradient>
  </defs>

  <!-- 背景圆角矩形容器 -->
  <rect x="32" y="32" width="448" height="448" rx="80" fill="url(#primaryGradient)" opacity="0.1"/>

  <!-- 左侧：混乱的文件图标 -->
  <g transform="translate(80, 200)">
    <!-- 文件外框（倾斜） -->
    <path d="M 10 0 L 70 0 L 90 20 L 90 100 L 10 100 Z"
          fill="none"
          stroke="#6366F1"
          stroke-width="8"
          stroke-linejoin="round"
          transform="rotate(-8 50 50)"/>
    <!-- 折角 -->
    <path d="M 70 0 L 70 20 L 90 20"
          fill="none"
          stroke="#6366F1"
          stroke-width="8"
          stroke-linejoin="round"
          transform="rotate(-8 50 50)"/>
    <!-- 乱码符号 -->
    <text x="50" y="65"
          font-family="monospace"
          font-size="36"
          font-weight="bold"
          fill="#6366F1"
          text-anchor="middle"
          transform="rotate(-8 50 50)">?</text>
  </g>

  <!-- 中间：动感转换箭头 -->
  <g transform="translate(256, 256)">
    <!-- 流线背景 -->
    <path d="M -80 -30 Q -20 -40, 0 0 Q 20 40, 80 30"
          fill="none"
          stroke="url(#accentGradient)"
          stroke-width="4"
          stroke-linecap="round"
          opacity="0.5"/>
    <path d="M -80 0 Q -20 -10, 0 0 Q 20 10, 80 0"
          fill="none"
          stroke="url(#accentGradient)"
          stroke-width="6"
          stroke-linecap="round"
          opacity="0.7"/>
    <path d="M -80 30 Q -20 40, 0 0 Q 20 -40, 80 -30"
          fill="none"
          stroke="url(#accentGradient)"
          stroke-width="4"
          stroke-linecap="round"
          opacity="0.5"/>

    <!-- 主箭头 -->
    <path d="M -60 0 L 50 0"
          stroke="#6366F1"
          stroke-width="10"
          stroke-linecap="round"/>
    <!-- 箭头头部 -->
    <path d="M 40 -18 L 70 0 L 40 18"
          fill="none"
          stroke="#6366F1"
          stroke-width="10"
          stroke-linecap="round"
          stroke-linejoin="round"/>

    <!-- 装饰小圆点 -->
    <circle cx="-70" cy="0" r="6" fill="#8B5CF6" opacity="0.6"/>
    <circle cx="-50" cy="-15" r="4" fill="#8B5CF6" opacity="0.4"/>
    <circle cx="-50" cy="15" r="4" fill="#8B5CF6" opacity="0.4"/>
  </g>

  <!-- 右侧：整齐的媒体图标 -->
  <g transform="translate(360, 200)">
    <!-- 播放按钮背景圆 -->
    <circle cx="50" cy="50" r="48" fill="url(#primaryGradient)" opacity="0.15"/>

    <!-- 胶片边框装饰 -->
    <rect x="8" y="30" width="8" height="40" rx="2" fill="#6366F1" opacity="0.3"/>
    <rect x="84" y="30" width="8" height="40" rx="2" fill="#6366F1" opacity="0.3"/>

    <!-- 播放三角形 -->
    <path d="M 38 30 L 38 70 L 70 50 Z"
          fill="#6366F1"
          stroke="none"/>

    <!-- 完成标记（对勾） -->
    <g transform="translate(70, 15)" opacity="0.8">
      <circle cx="0" cy="0" r="16" fill="#10B981"/>
      <path d="M -6 0 L -2 5 L 6 -5"
            fill="none"
            stroke="white"
            stroke-width="3"
            stroke-linecap="round"
            stroke-linejoin="round"/>
    </g>
  </g>

  <!-- 底部装饰点 -->
  <g opacity="0.4">
    <circle cx="120" cy="420" r="8" fill="#6366F1"/>
    <circle cx="256" cy="440" r="6" fill="#8B5CF6"/>
    <circle cx="392" cy="420" r="8" fill="#6366F1"/>
  </g>
</svg>
